# xmcd CD database file
#
# Track frame offsets:
#	150
#	13262
#	23780
#	35605
#	46322
#	57962
#	69920
#	78130
#	90207
#	103937
#	115190
#	129692
#	138417
#	148370
#	159582
#	172955
#
# Disc length: 2454 seconds
#
# Revision: 2
# Processed by: cddbd v1.5.1PL0 Copyright (c) Steve Scherf et al.
# Submitted via: CDex 1.51
#
DISCID=d5099410
DTITLE=Various Artist - Country Hits No. 1
DYEAR=1900
DGENRE=Country
TTITLE0=Hank Williams - Jambalaya (on the bayou)
TTITLE1=Buck Owens - Act naturally
TTITLE2=Kitty Wells - Hartbreak U.S.A.
TTITLE3=Everly Brothers - Bye bye love
TTITLE4=Ray Price - Crazy arms
TTITLE5=Eddy Arnold - Make the world go away
TTITLE6=Elvis Presley - Teddy bear
TTITLE7=Del Reeve - Girl on a billboard
TTITLE8=Jonny Cash - Don't take your guns to town
TTITLE9=Don Gibson - Oh, lonesome me
TTITLE10=Jeannie C. Riley - Harper Valley P.T.A.
TTITLE11=Don Gibson - Blue, blue day
TTITLE12=George Hamilton IV - Abilene
TTITLE13=Marty Robbins - Singing the Blues
TTITLE14=Bobby Helms - My special angel
TTITLE15=Sonny James - Young love
EXTD=
EXTT0=
EXTT1=
EXTT2=
EXTT3=
EXTT4=
EXTT5=
EXTT6=
EXTT7=
EXTT8=
EXTT9=
EXTT10=
EXTT11=
EXTT12=
EXTT13=
EXTT14=
EXTT15=
PLAYORDER=
